<?xml version="1.0" ?><!DOCTYPE svg  PUBLIC '-//W3C//DTD SVG 1.1//EN'  'http://www.w3.org/Graphics/SVG/1.1/DTD/svg11.dtd'><svg height="512px" style="enable-background:new 0 0 512 512;" version="1.1" viewBox="0 0 512 512" width="512px" xml:space="preserve" xmlns="http://www.w3.org/2000/svg" xmlns:xlink="http://www.w3.org/1999/xlink"><g id="_x36_81_x2C__hand_x2C__love_x2C__heart_x2C__wedding"><g><path d="M305.67,51.59c14.09,14.09,8.61,35.62,9.2,63.19c-27.57-0.59-49.09,4.87-63.17-9.21    c-7.78-7.78-8.05-20.13-0.6-27.58c6.74-6.75,13.64-6.6,24.06-2.92c-3.68-10.42-3.83-17.32,2.92-24.06    C285.54,43.55,297.89,43.81,305.67,51.59z" style="fill:#EF3E5C;"/><g><g><g><path d="M305.67,51.59c-7.78-7.78-20.13-8.04-27.59-0.58c-2.938,2.933-4.565,5.896-5.167,9.167       c7.528-5.774,18.581-5.011,25.757,2.164c12.196,12.196,9.731,29.971,9.23,52.408c2.279-0.022,4.601-0.019,6.97,0.032       C314.28,87.21,319.76,65.68,305.67,51.59z" style="fill:#E42A53;"/></g></g></g><path d="M287.28,140.21c19.63,0,35.52,16.69,35.52,37.26c0,37.26-35.52,58.47-70.99,95.73    c-35.48-37.26-70.95-58.47-70.95-95.73c0-20.57,15.89-37.26,35.47-37.26c17.74,0,26.61,9.32,35.48,27.95    C260.67,149.53,269.54,140.21,287.28,140.21z" style="fill:#EF3E5C;"/><path d="M183.61,190.97c0-20.57,15.89-37.26,35.47-37.26c17.74,0,26.61,9.32,35.48,27.95    c8.86-18.63,17.73-27.95,35.47-27.95c14.738,0,27.367,9.409,32.746,22.804c-0.484-20.127-16.172-36.304-35.496-36.304    c-17.74,0-26.61,9.32-35.47,27.95c-8.87-18.63-17.74-27.95-35.48-27.95c-19.58,0-35.47,16.69-35.47,37.26    c0,6.341,1.048,12.209,2.928,17.778C183.682,193.842,183.61,192.422,183.61,190.97z" style="fill:#E42A53;"/><path d="M423.8,414.931l-17.46,51.489l-137.3-46.569l17.46-51.49l17.49,5.94l62,21.02l36.56,12.4l5.29,1.8    L423.8,414.931z M397.91,434.851c1.6-4.74-0.94-9.88-5.67-11.49c-4.74-1.61-9.891,0.93-11.5,5.67    c-1.601,4.74,0.939,9.89,5.68,11.49C391.15,442.13,396.3,439.59,397.91,434.851z" style="fill:#415A6B;"/><g><polygon points="292.834,381.36 310.324,387.301 372.324,408.32 408.884,420.721 414.174,422.521      420.499,424.665 423.8,414.931 407.84,409.521 402.55,407.721 365.99,395.32 303.99,374.301 286.5,368.36 269.04,419.851      278.674,423.118    " style="fill:#314754;"/></g><path d="M225.5,368.36l17.46,51.49l-137.3,46.569L88.2,414.931l15.96-5.41l5.29-1.8l36.56-12.4l62-21.02    L225.5,368.36z M125.58,440.521c4.74-1.601,7.28-6.75,5.68-11.49c-1.61-4.74-6.76-7.28-11.5-5.67c-4.73,1.61-7.27,6.75-5.67,11.49    C115.7,439.59,120.85,442.13,125.58,440.521z" style="fill:#415A6B;"/><g><polygon points="97.494,424.07 102.784,422.271 139.343,409.87 201.343,388.851 218.833,382.91      232.556,423.379 242.96,419.851 225.5,368.36 208.01,374.301 146.01,395.32 109.45,407.721 104.16,409.521 88.2,414.931      91.938,425.953    " style="fill:#314754;"/></g><path d="M121.28,230.86c0.82-0.23,1.68-0.42,2.59-0.58c36.44-6.61,80.55,90.06,84.11,119.75    c0.89,7.11,0.58,15.51-0.41,24.41l-61.56,20.88l-36.56,12.4l-5.29,1.79c3.17-72.96-37.06-72.19-51.02-127.33    C44.79,249.41,71.28,122.13,97.16,115.3c16.17-4.22,27.89,16.5,30.11,28.73c4.68,25.17-3.61,66.8-13.06,90.45    C116.01,232.88,118.38,231.66,121.28,230.86z" style="fill:#FFC592;"/><path d="M207.98,350.03c-3.56-29.69-47.67-126.36-84.11-119.75c-0.91,0.16-1.77,0.35-2.59,0.58    c-2.9,0.8-5.27,2.02-7.07,3.62c9.45-23.65,17.74-65.28,13.06-90.45c-2.22-12.23-13.94-32.95-30.11-28.73    c-4.966,1.311-9.954,7.068-14.714,15.73c2.436-2.632,4.896-4.368,7.351-5.016c16.17-4.22,27.89,16.5,30.11,28.73    c4.68,25.17-3.61,66.8-13.06,90.45c1.8-1.6,4.17-2.82,7.07-3.62c0.82-0.23,1.68-0.42,2.59-0.58    c36.44-6.61,80.55,90.06,84.11,119.75c0.602,4.806,0.646,10.209,0.311,15.949l6.643-2.253    C208.56,365.54,208.87,357.141,207.98,350.03z" style="fill:#EFA873;"/><path d="M390.72,230.86c2.9,0.8,5.271,2.02,7.08,3.62c-9.46-23.65-17.75-65.28-13.069-90.45    c2.22-12.23,13.939-32.95,30.109-28.73c25.88,6.83,52.37,134.11,44.021,166.881c-13.96,55.14-54.19,54.37-51.021,127.33    l-5.29-1.79l-36.56-12.4l-61.561-20.88c-0.989-8.9-1.3-17.3-0.41-24.41c3.561-29.69,47.671-126.36,84.11-119.75    C389.04,230.44,389.9,230.63,390.72,230.86z" style="fill:#FFC592;"/><path d="M319.606,361.104c3.561-29.689,47.671-126.36,84.11-119.75c0.91,0.16,1.771,0.35,2.59,0.58    c2.9,0.8,5.271,2.02,7.08,3.62c-9.46-23.65-17.75-65.28-13.069-90.45c2.032-11.197,12.031-29.498,26.114-29.272    c-3.798-5.741-7.701-9.505-11.592-10.532c-16.17-4.22-27.89,16.5-30.109,28.73c-4.681,25.17,3.609,66.8,13.069,90.45    c-1.81-1.6-4.18-2.82-7.08-3.62c-0.819-0.23-1.68-0.42-2.59-0.58c-36.439-6.61-80.55,90.06-84.11,119.75    c-0.89,7.11-0.579,15.51,0.41,24.41l15.029,5.098C318.954,372.867,318.919,366.599,319.606,361.104z" style="fill:#EFA873;"/><path d="M392.24,423.36c4.729,1.61,7.27,6.75,5.67,11.49c-1.61,4.739-6.76,7.279-11.49,5.67    c-4.74-1.601-7.28-6.75-5.68-11.49C382.35,424.29,387.5,421.75,392.24,423.36z" style="fill:#314754;"/><path d="M131.26,429.03c1.6,4.74-0.94,9.89-5.68,11.49c-4.73,1.609-9.88-0.931-11.49-5.67    c-1.6-4.74,0.94-9.88,5.67-11.49C124.5,421.75,129.65,424.29,131.26,429.03z" style="fill:#314754;"/><path d="M368.865,327.166c-0.942,0-1.896-0.267-2.741-0.823c-2.308-1.517-2.949-4.616-1.432-6.924    c0.488-0.744,1.11-1.673,1.842-2.766c23.146-34.562,33.073-57.84,29.509-69.188c-0.886-2.817-2.678-4.667-5.641-5.823    c-1.03-0.403-2.218-0.723-3.533-0.953c-2.72-0.476-4.539-3.066-4.064-5.786c0.476-2.72,3.063-4.538,5.787-4.064    c1.969,0.344,3.803,0.845,5.448,1.489c5.761,2.247,9.754,6.446,11.543,12.141c6.104,19.43-14.62,53.678-30.739,77.749    c-0.713,1.063-1.319,1.97-1.796,2.693C372.088,326.373,370.492,327.166,368.865,327.166z" style="fill:#EFA873;"/><path d="M143.135,326.541c-1.627,0-3.223-0.793-4.183-2.255c-0.476-0.724-1.083-1.629-1.795-2.693    c-16.12-24.07-36.844-58.319-30.74-77.75c1.789-5.694,5.782-9.893,11.546-12.142c1.598-0.637,3.391-1.128,5.447-1.487    c2.72-0.474,5.311,1.344,5.786,4.065c0.476,2.72-1.345,5.311-4.065,5.786c-1.35,0.236-2.527,0.552-3.499,0.939    c-2.997,1.169-4.789,3.02-5.674,5.836c-3.565,11.348,6.363,34.626,29.508,69.188c0.731,1.093,1.354,2.021,1.842,2.766    c1.517,2.308,0.876,5.407-1.432,6.924C145.03,326.274,144.077,326.541,143.135,326.541z" style="fill:#EFA873;"/></g></g><g id="Layer_1"/></svg>